<svg width="64" height="64" viewBox="0 0 64 64" fill="none" xmlns="http://www.w3.org/2000/svg">
<rect width="64" height="64" rx="8" fill="#090A0B"/>
<path d="M22.3721 39L10.9967 31.3246L22.0245 24H17.5068L8.58722 30.1073C7.98486 30.5199 7.84585 30.8501 7.84585 31.304C7.84585 31.7166 7.93853 32.0468 8.44822 32.3975L17.8775 39H22.3721ZM6.94231 39V24H4V39H6.94231Z" fill="white"/>
<path d="M35.4155 39C38.7054 39 40.8368 37.1843 40.8368 34.4608C40.8368 32.707 39.7247 31.5103 38.1957 31.077C39.4467 30.7263 40.5124 29.7772 40.5124 27.879C40.5124 25.3205 38.3578 24 35.0912 24H23.9475V26.5997H34.512C36.4581 26.5997 37.547 27.0743 37.547 28.4567C37.547 29.7565 36.7593 30.2724 35.0912 30.2724H27.8628V32.4801H35.2997C36.9446 32.4801 37.8481 33.1609 37.8481 34.3989C37.8481 35.6988 36.5508 36.3796 34.6973 36.3796H23.878V39H35.4155Z" fill="white"/>
<path d="M54.5787 39C57.8686 39 60 37.1843 60 34.4608C60 32.707 58.8879 31.5103 57.3589 31.077C58.6099 30.7263 59.6757 29.7772 59.6757 27.879C59.6757 25.3205 57.521 24 54.2544 24H43.1107V26.5997H53.6752C55.6213 26.5997 56.7102 27.0743 56.7102 28.4567C56.7102 29.7565 55.9225 30.2724 54.2544 30.2724H47.026V32.4801H54.4629C56.1078 32.4801 57.0114 33.1609 57.0114 34.3989C57.0114 35.6988 55.714 36.3796 53.8605 36.3796H43.0412V39H54.5787Z" fill="white"/>
</svg>
