<svg width="133" height="40" viewBox="0 0 133 40" fill="none" xmlns="http://www.w3.org/2000/svg">
<path d="M43.6336 40L16.6171 19.5323L42.8083 0H32.0787L10.8947 16.2861C9.46404 17.3865 9.1339 18.2668 9.1339 19.4773C9.1339 20.5777 9.354 21.458 10.5645 22.3934L32.9591 40H43.6336ZM6.98799 40V0H0V40H6.98799Z" fill="#090A0B"/>
<path d="M74.6119 40C82.4252 40 87.4874 35.1582 87.4874 27.8955C87.4874 23.2187 84.8463 20.0275 81.2147 18.8721C84.186 17.9367 86.7171 15.4058 86.7171 10.3439C86.7171 3.52132 81.5999 0 73.8415 0H47.3752V6.9326H72.466C77.0879 6.9326 79.674 8.19807 79.674 11.8845C79.674 15.3508 77.8032 16.7263 73.8415 16.7263H56.6742V22.6135H74.3368C78.2434 22.6135 80.3894 24.4292 80.3894 27.7304C80.3894 31.1967 77.308 33.0124 72.9062 33.0124H47.2102V40H74.6119Z" fill="#090A0B"/>
<path d="M120.124 40C127.938 40 133 35.1582 133 27.8955C133 23.2187 130.359 20.0275 126.727 18.8721C129.699 17.9367 132.23 15.4058 132.23 10.3439C132.23 3.52132 127.112 0 119.354 0H92.8879V6.9326H117.979C122.601 6.9326 125.187 8.19807 125.187 11.8845C125.187 15.3508 123.316 16.7263 119.354 16.7263H102.187V22.6135H119.849C123.756 22.6135 125.902 24.4292 125.902 27.7304C125.902 31.1967 122.821 33.0124 118.419 33.0124H92.7228V40H120.124Z" fill="#090A0B"/>
</svg>
